<svg width="62" height="14" viewBox="0 0 62 14" fill="none" xmlns="http://www.w3.org/2000/svg">
<path d="M5.756 13.554C4.964 13.242 4.352 12.978 3.92 12.762C3.5 12.534 3.29 12.312 3.29 12.096C3.29 11.988 3.302 11.832 3.326 11.628C3.362 11.424 3.392 11.106 3.416 10.674C3.44 10.23 3.458 9.6 3.47 8.784C2.822 7.896 2.318 7.08 1.958 6.336C1.61 5.58 1.436 4.854 1.436 4.158C1.436 3.906 1.454 3.684 1.49 3.492H1.112L0.194 2.286L0.32 1.998H2.822L3.74 3.276V3.492C3.56 3.648 3.434 3.834 3.362 4.05C3.29 4.266 3.254 4.53 3.254 4.842C3.254 5.178 3.308 5.616 3.416 6.156C3.524 6.684 3.74 7.278 4.064 7.938C4.328 7.326 4.616 6.66 4.928 5.94C5.252 5.208 5.618 4.392 6.026 3.492H5.432L4.55 2.286L4.694 1.998H7.088L8.042 3.384C7.586 4.488 7.118 5.556 6.638 6.588C6.158 7.62 5.714 8.586 5.306 9.486C5.294 10.374 5.258 11.022 5.198 11.43C5.15 11.826 5.126 12.096 5.126 12.24C5.126 12.36 5.198 12.48 5.342 12.6C5.498 12.708 5.714 12.84 5.99 12.996L5.756 13.554ZM11.832 13.41C11.544 13.41 11.196 13.338 10.788 13.194C10.38 13.05 9.98398 12.858 9.59998 12.618C9.21598 12.378 8.89198 12.102 8.62798 11.79C8.37598 11.478 8.24998 11.16 8.24998 10.836C8.24998 10.692 8.26798 10.272 8.30398 9.576C8.35198 8.88 8.37598 8.01 8.37598 6.966C8.37598 6.126 8.62198 5.508 9.11398 5.112C9.60598 4.716 10.344 4.518 11.328 4.518C11.616 4.518 11.934 4.608 12.282 4.788C12.642 4.968 12.984 5.202 13.308 5.49C13.632 5.778 13.896 6.084 14.1 6.408C14.316 6.72 14.424 7.014 14.424 7.29C14.424 7.746 14.412 8.238 14.388 8.766C14.376 9.294 14.37 9.972 14.37 10.8C14.37 11.568 14.16 12.198 13.74 12.69C13.32 13.17 12.684 13.41 11.832 13.41ZM10.68 11.88C11.34 11.88 11.82 11.742 12.12 11.466C12.432 11.19 12.588 10.782 12.588 10.242C12.588 9.858 12.594 9.426 12.606 8.946C12.618 8.454 12.63 8.004 12.642 7.596C12.654 7.176 12.66 6.882 12.66 6.714C12.66 6.51 12.624 6.36 12.552 6.264C12.48 6.156 12.336 6.102 12.12 6.102C11.472 6.102 10.974 6.216 10.626 6.444C10.29 6.66 10.122 7.074 10.122 7.686C10.122 8.838 10.11 9.708 10.086 10.296C10.062 10.872 10.05 11.262 10.05 11.466C10.05 11.742 10.26 11.88 10.68 11.88ZM22.6678 13.446C22.3918 13.338 22.1398 13.224 21.9118 13.104C21.6838 12.984 21.4678 12.852 21.2638 12.708C21.0118 12.912 20.7118 13.08 20.3638 13.212C20.0158 13.344 19.6918 13.41 19.3918 13.41C19.1758 13.41 18.8818 13.338 18.5098 13.194C18.1378 13.05 17.7598 12.858 17.3758 12.618C16.9918 12.378 16.6678 12.12 16.4038 11.844C16.1398 11.556 16.0078 11.28 16.0078 11.016C16.0078 10.836 16.0198 10.548 16.0438 10.152C16.0798 9.744 16.0978 9.282 16.0978 8.766V7.722C16.0978 7.41 16.1098 7.122 16.1338 6.858C16.1698 6.582 16.2238 6.342 16.2958 6.138H15.7018L14.7478 4.914L14.8738 4.608H17.1778L18.2218 6.012C18.0778 6.204 17.9818 6.444 17.9338 6.732C17.8978 7.02 17.8798 7.386 17.8798 7.83V8.892C17.8798 9.684 17.8678 10.26 17.8438 10.62C17.8318 10.98 17.8258 11.232 17.8258 11.376C17.8258 11.712 18.0298 11.88 18.4378 11.88C18.7378 11.88 19.0258 11.826 19.3018 11.718C19.5898 11.598 19.8238 11.43 20.0038 11.214C20.1958 10.986 20.2918 10.716 20.2918 10.404V7.722C20.2918 7.41 20.3038 7.122 20.3278 6.858C20.3638 6.582 20.4178 6.342 20.4898 6.138H19.8958L18.9418 4.914L19.0678 4.608H21.3718L22.4158 6.012C22.2718 6.204 22.1758 6.444 22.1278 6.732C22.0918 7.02 22.0738 7.386 22.0738 7.83V9.756C22.0738 10.416 22.0618 10.914 22.0378 11.25C22.0138 11.586 22.0018 11.832 22.0018 11.988C22.0018 12.18 22.0678 12.354 22.1998 12.51C22.3438 12.654 22.5778 12.81 22.9018 12.978L22.6678 13.446ZM27.1186 13.662C26.0866 13.326 25.3426 13.038 24.8866 12.798C24.4306 12.546 24.2026 12.366 24.2026 12.258C24.2026 12.126 24.2206 11.898 24.2566 11.574C24.3046 11.25 24.3286 10.746 24.3286 10.062V7.83C24.3286 7.59 24.3406 7.308 24.3646 6.984C24.3886 6.648 24.4246 6.366 24.4726 6.138H23.8066L22.8706 4.896L22.9966 4.608H24.6886C24.7486 4.608 24.8566 4.698 25.0126 4.878C25.1806 5.046 25.3486 5.232 25.5166 5.436C25.7086 5.124 25.9726 4.896 26.3086 4.752C26.6566 4.608 27.0226 4.536 27.4066 4.536C27.5986 4.536 27.7426 4.548 27.8386 4.572L28.7386 5.832L28.5946 6.048C27.7546 6.036 27.1306 6.198 26.7226 6.534C26.3146 6.87 26.1106 7.488 26.1106 8.388V10.314C26.1106 10.914 26.0926 11.382 26.0566 11.718C26.0326 12.042 26.0206 12.258 26.0206 12.366C26.0206 12.438 26.0446 12.504 26.0926 12.564C26.1406 12.612 26.2546 12.672 26.4346 12.744C26.6266 12.816 26.9266 12.936 27.3346 13.104L27.1186 13.662Z" fill="white"/>
<path d="M33.9613 13.374C33.8293 13.374 33.6253 13.296 33.3493 13.14C33.0853 12.972 32.8033 12.774 32.5033 12.546C32.2153 12.306 31.9633 12.078 31.7473 11.862C31.5433 11.646 31.4293 11.49 31.4053 11.394C31.1173 10.026 30.8773 8.916 30.6853 8.064C30.5053 7.2 30.3613 6.522 30.2533 6.03C30.1573 5.526 30.0913 5.142 30.0553 4.878C30.0193 4.602 30.0013 4.368 30.0013 4.176C30.0013 3.912 30.0313 3.684 30.0913 3.492H29.5873L28.7593 2.286L28.8853 1.998H31.3333L32.1793 3.258V3.492C31.9153 3.624 31.7293 3.78 31.6213 3.96C31.5253 4.14 31.4773 4.392 31.4773 4.716C31.4773 4.824 31.4893 4.98 31.5133 5.184C31.5493 5.376 31.6093 5.688 31.6933 6.12C31.7773 6.552 31.9033 7.176 32.0713 7.992C32.2393 8.808 32.4613 9.894 32.7373 11.25C33.0253 10.278 33.3433 9.108 33.6913 7.74C34.0393 6.372 34.3993 4.956 34.7713 3.492H34.0153L33.2053 2.286L33.3313 1.998H35.7433L36.7513 3.492C36.6313 3.9 36.4873 4.422 36.3193 5.058C36.1513 5.694 35.9713 6.384 35.7793 7.128C35.5993 7.872 35.4133 8.61 35.2213 9.342C35.0413 10.074 34.8673 10.746 34.6993 11.358C34.5313 11.97 34.3813 12.462 34.2493 12.834C34.1173 13.194 34.0213 13.374 33.9613 13.374ZM43.7498 13.41C43.4618 13.314 43.1978 13.218 42.9578 13.122C42.7178 13.014 42.4898 12.9 42.2738 12.78C42.1058 12.948 41.9018 13.086 41.6618 13.194C41.4338 13.29 41.1698 13.338 40.8698 13.338C40.6658 13.338 40.3658 13.272 39.9698 13.14C39.5858 13.008 39.1898 12.84 38.7818 12.636C38.3738 12.42 38.0258 12.186 37.7378 11.934C37.4618 11.67 37.3238 11.412 37.3238 11.16C37.3238 10.848 37.3238 10.572 37.3238 10.332C37.3358 10.08 37.3418 9.93 37.3418 9.882C37.3418 9.174 37.5218 8.676 37.8818 8.388C38.2538 8.088 38.7698 7.938 39.4298 7.938C39.7658 7.938 40.1258 7.962 40.5098 8.01C40.8938 8.058 41.2058 8.112 41.4458 8.172C41.4578 7.836 41.4638 7.518 41.4638 7.218C41.4758 6.906 41.4818 6.672 41.4818 6.516C41.4818 6.384 41.4458 6.288 41.3738 6.228C41.3018 6.168 41.1698 6.138 40.9778 6.138C40.5098 6.138 40.1138 6.174 39.7898 6.246C39.4658 6.318 39.1598 6.438 38.8718 6.606H38.5298L37.3598 4.896L37.5038 4.608H40.5098C40.7498 4.608 41.0198 4.704 41.3198 4.896C41.6318 5.076 41.9378 5.304 42.2378 5.58C42.5378 5.856 42.7838 6.138 42.9758 6.426C43.1678 6.714 43.2638 6.966 43.2638 7.182C43.2638 7.578 43.2518 8.046 43.2278 8.586C43.2038 9.126 43.1798 9.678 43.1558 10.242C43.1318 10.794 43.1198 11.298 43.1198 11.754C43.1198 12.114 43.1798 12.366 43.2998 12.51C43.4198 12.642 43.6478 12.774 43.9838 12.906L43.7498 13.41ZM39.1058 11.16C39.1058 11.46 39.1598 11.652 39.2678 11.736C39.3758 11.808 39.5078 11.844 39.6638 11.844C40.1558 11.844 40.5638 11.718 40.8878 11.466C41.2238 11.202 41.3918 10.794 41.3918 10.242C41.3918 10.134 41.3918 10.002 41.3918 9.846C41.4038 9.69 41.4098 9.516 41.4098 9.324C41.2778 9.288 41.1158 9.264 40.9238 9.252C40.7318 9.24 40.5578 9.234 40.4018 9.234C39.9698 9.234 39.6458 9.33 39.4298 9.522C39.2138 9.714 39.1058 10.05 39.1058 10.53V11.16ZM51.6893 13.446C51.4133 13.338 51.1613 13.224 50.9333 13.104C50.7053 12.984 50.4893 12.852 50.2853 12.708C50.0333 12.912 49.7333 13.08 49.3853 13.212C49.0373 13.344 48.7133 13.41 48.4133 13.41C48.1973 13.41 47.9033 13.338 47.5313 13.194C47.1593 13.05 46.7813 12.858 46.3973 12.618C46.0133 12.378 45.6893 12.12 45.4253 11.844C45.1613 11.556 45.0293 11.28 45.0293 11.016C45.0293 10.836 45.0413 10.548 45.0653 10.152C45.1013 9.744 45.1193 9.282 45.1193 8.766V7.722C45.1193 7.41 45.1313 7.122 45.1553 6.858C45.1913 6.582 45.2453 6.342 45.3173 6.138H44.7233L43.7693 4.914L43.8953 4.608H46.1993L47.2433 6.012C47.0993 6.204 47.0033 6.444 46.9553 6.732C46.9193 7.02 46.9013 7.386 46.9013 7.83V8.892C46.9013 9.684 46.8893 10.26 46.8653 10.62C46.8533 10.98 46.8473 11.232 46.8473 11.376C46.8473 11.712 47.0513 11.88 47.4593 11.88C47.7593 11.88 48.0473 11.826 48.3233 11.718C48.6113 11.598 48.8453 11.43 49.0253 11.214C49.2173 10.986 49.3133 10.716 49.3133 10.404V7.722C49.3133 7.41 49.3253 7.122 49.3493 6.858C49.3853 6.582 49.4393 6.342 49.5113 6.138H48.9173L47.9633 4.914L48.0893 4.608H50.3933L51.4373 6.012C51.2933 6.204 51.1973 6.444 51.1493 6.732C51.1133 7.02 51.0953 7.386 51.0953 7.83V9.756C51.0953 10.416 51.0833 10.914 51.0593 11.25C51.0353 11.586 51.0233 11.832 51.0233 11.988C51.0233 12.18 51.0893 12.354 51.2213 12.51C51.3653 12.654 51.5993 12.81 51.9233 12.978L51.6893 13.446ZM55.4381 13.536C54.6701 13.248 54.0761 12.99 53.6561 12.762C53.2481 12.522 53.0441 12.306 53.0441 12.114C53.0441 11.946 53.0621 11.688 53.0981 11.34C53.1461 10.98 53.1701 10.632 53.1701 10.296V5.454C53.1701 4.734 53.1941 4.074 53.2421 3.474C53.3021 2.862 53.3741 2.37 53.4581 1.998H52.6841L51.6941 0.827999L51.8201 0.539999H54.1601L55.2221 1.908C55.1381 2.376 55.0721 2.91 55.0241 3.51C54.9761 4.098 54.9521 4.698 54.9521 5.31V10.494C54.9521 10.926 54.9341 11.31 54.8981 11.646C54.8621 11.97 54.8441 12.216 54.8441 12.384C54.8441 12.504 54.8861 12.6 54.9701 12.672C55.0661 12.732 55.2941 12.858 55.6541 13.05L55.4381 13.536ZM59.9165 13.356C59.7365 13.356 59.4905 13.29 59.1785 13.158C58.8665 13.014 58.5485 12.834 58.2245 12.618C57.9005 12.39 57.6245 12.156 57.3965 11.916C57.1685 11.664 57.0545 11.424 57.0545 11.196C57.0545 11.064 57.0605 10.926 57.0725 10.782C57.0845 10.638 57.1025 10.452 57.1265 10.224C57.1505 9.984 57.1685 9.666 57.1805 9.27C57.1925 8.874 57.1985 8.358 57.1985 7.722C57.1985 7.482 57.1985 7.23 57.1985 6.966C57.1985 6.702 57.1925 6.426 57.1805 6.138H56.8565L55.9385 4.932L56.0645 4.644C56.7005 4.572 57.1025 4.38 57.2705 4.068C57.4385 3.756 57.5225 3.282 57.5225 2.646L57.8285 2.538L58.9265 3.366C58.9265 3.582 58.9265 3.792 58.9265 3.996C58.9265 4.2 58.9265 4.404 58.9265 4.608H60.4565L61.3565 5.868L61.2305 6.138H58.9445C58.9445 6.57 58.9445 6.984 58.9445 7.38C58.9445 7.776 58.9445 8.154 58.9445 8.514C58.9445 9.21 58.9325 9.744 58.9085 10.116C58.8965 10.488 58.8785 10.764 58.8545 10.944C58.8305 11.124 58.8185 11.292 58.8185 11.448C58.8185 11.688 58.9445 11.808 59.1965 11.808C59.4125 11.808 59.6465 11.754 59.8985 11.646C60.1505 11.526 60.3845 11.382 60.6005 11.214H60.8525L61.6985 12.618C61.5305 12.822 61.2665 12.996 60.9065 13.14C60.5465 13.284 60.2165 13.356 59.9165 13.356Z" fill="#7E5FC2"/>
</svg>
